<svg width="710" height="383" viewBox="0 0 710 383" fill="none" xmlns="http://www.w3.org/2000/svg">
<g filter="url(#filter0_f_18_162)">
<ellipse cx="375.142" cy="207.904" rx="90.4894" ry="256.518" transform="rotate(83.0209 375.142 207.904)" fill="#363092"/>
<path d="M289.392 175.102C315.365 146.493 233.737 156.152 189.676 164.558C186.046 165.002 174.646 171.625 158.084 194.564C141.523 217.503 99.3367 224.883 80.3138 225.706L197.421 227.828C217.256 222.173 263.419 203.71 289.392 175.102Z" fill="#C56A6A" stroke="#BE2626"/>
<path d="M213.301 243.501C289.781 253.541 304.716 206.681 302.624 181.995C303.241 179.914 288.548 174.375 224.841 168.868C161.134 163.362 161.255 139.599 169.28 128.406L97.0189 198.682C103.913 209.438 136.822 233.46 213.301 243.501Z" fill="#C56A6A" stroke="#C56A6A"/>
<path d="M500.599 222.089C608.553 233.431 627.208 175.437 623.04 145.022C623.804 142.447 602.885 135.817 513.101 129.893C423.318 123.969 422.307 94.6622 433.024 80.7493L334.992 168.4C345.213 181.571 392.645 210.748 500.599 222.089Z" fill="#C56A6A" stroke="#BE2626"/>
<path d="M223.4 271.176C302.06 273.863 310.869 247.665 305.441 234.23C305.786 233.068 290.19 230.576 225.05 229.902C159.91 229.228 156.843 216.217 163.453 209.796L99.8362 250.916C108.249 256.55 144.74 268.49 223.4 271.176Z" fill="#363092" stroke="#BE2626"/>
<path d="M505.399 204.904C540.224 151.475 425.646 164.856 364.004 178.226C358.91 178.849 343.245 190.875 321.34 233.987C299.435 277.099 240.373 288.614 213.58 288.982L378.979 300.555C406.609 290.934 470.575 258.333 505.399 204.904Z" fill="#511212"/>
<path d="M505.399 204.904C540.224 151.475 425.646 164.856 364.004 178.226C358.91 178.849 343.245 190.875 321.34 233.987C299.435 277.099 240.373 288.614 213.58 288.982L378.979 300.555C406.609 290.934 470.575 258.333 505.399 204.904Z" fill="#511212"/>
<path d="M505.399 204.904C540.224 151.475 425.646 164.856 364.004 178.226C358.91 178.849 343.245 190.875 321.34 233.987C299.435 277.099 240.373 288.614 213.58 288.982L378.979 300.555C406.609 290.934 470.575 258.333 505.399 204.904Z" fill="#D3CA75" fill-opacity="0.61"/>
<path d="M505.399 204.904C540.224 151.475 425.646 164.856 364.004 178.226C358.91 178.849 343.245 190.875 321.34 233.987C299.435 277.099 240.373 288.614 213.58 288.982L378.979 300.555C406.609 290.934 470.575 258.333 505.399 204.904Z" stroke="#BE2626"/>
</g>
<defs>
<filter id="filter0_f_18_162" x="0.292175" y="0.46521" width="709.709" height="382.538" filterUnits="userSpaceOnUse" color-interpolation-filters="sRGB">
<feFlood flood-opacity="0" result="BackgroundImageFix"/>
<feBlend mode="normal" in="SourceGraphic" in2="BackgroundImageFix" result="shape"/>
<feGaussianBlur stdDeviation="40" result="effect1_foregroundBlur_18_162"/>
</filter>
</defs>
</svg>
