<svg width="314" height="305" viewBox="0 0 314 305" fill="none" xmlns="http://www.w3.org/2000/svg">
<g filter="url(#filter0_f_52_9)">
<ellipse cx="267.873" cy="191.607" rx="142.079" ry="111.542" fill="#363092"/>
<path d="M250.019 210.462C210.388 197.741 209.868 233.483 214.562 252.944C214.562 254.534 222.71 259.804 255.3 268.164C287.89 276.524 291.344 295.122 288.997 303.376L314.646 252.944C309.617 244.084 289.65 223.184 250.019 210.462Z" fill="#C56A6A" stroke="#BE2626"/>
<path d="M342.101 246.918C372.34 214.439 302.158 205.517 263.286 205.116C260.161 204.739 248.726 210.788 227.989 237.994C207.253 265.199 170.242 263.891 154.329 259.837L250.067 294.738C268.145 292.331 311.862 279.396 342.101 246.918Z" fill="#C56A6A" stroke="#C56A6A"/>
<path d="M313.915 138.208C352.187 92.2136 265.363 81.0982 217.167 81.2899C213.299 80.8243 198.975 89.5028 172.613 127.941C146.252 166.379 100.385 165.267 80.7466 159.906L198.646 206.849C221.123 203.133 275.644 184.203 313.915 138.208Z" fill="#C56A6A" stroke="#BE2626"/>
<path d="M387.16 244.021C406.354 210.213 367.205 205.027 345.231 206.659C343.486 206.449 336.627 213.049 323.15 241.129C309.672 269.208 288.809 269.844 280.063 266.652L332.011 296.282C342.397 292.948 367.967 277.83 387.16 244.021Z" fill="#363092" stroke="#BE2626"/>
<path d="M288.048 135.228C211.423 117.375 210.419 167.535 219.494 194.846C219.494 197.078 235.247 204.474 298.258 216.206C361.269 227.939 367.946 254.039 363.408 265.622L413 194.846C403.276 182.412 364.672 153.082 288.048 135.228Z" fill="#511212"/>
<path d="M288.048 135.228C211.423 117.375 210.419 167.535 219.494 194.846C219.494 197.078 235.247 204.474 298.258 216.206C361.269 227.939 367.946 254.039 363.408 265.622L413 194.846C403.276 182.412 364.672 153.082 288.048 135.228Z" fill="#511212"/>
<path d="M288.048 135.228C211.423 117.375 210.419 167.535 219.494 194.846C219.494 197.078 235.247 204.474 298.258 216.206C361.269 227.939 367.946 254.039 363.408 265.622L413 194.846C403.276 182.412 364.672 153.082 288.048 135.228Z" fill="#D3CA75" fill-opacity="0.61"/>
<path d="M288.048 135.228C211.423 117.375 210.419 167.535 219.494 194.846C219.494 197.078 235.247 204.474 298.258 216.206C361.269 227.939 367.946 254.039 363.408 265.622L413 194.846C403.276 182.412 364.672 153.082 288.048 135.228Z" stroke="#BE2626"/>
</g>
<defs>
<filter id="filter0_f_52_9" x="0.549622" y="0.0655212" width="493.072" height="383.537" filterUnits="userSpaceOnUse" color-interpolation-filters="sRGB">
<feFlood flood-opacity="0" result="BackgroundImageFix"/>
<feBlend mode="normal" in="SourceGraphic" in2="BackgroundImageFix" result="shape"/>
<feGaussianBlur stdDeviation="40" result="effect1_foregroundBlur_52_9"/>
</filter>
</defs>
</svg>
