<svg width="296" height="384" viewBox="0 0 296 384" fill="none" xmlns="http://www.w3.org/2000/svg">
<g filter="url(#filter0_f_52_16)">
<ellipse cx="69.8733" cy="191.607" rx="142.079" ry="111.542" fill="#363092"/>
<path d="M52.0191 210.462C12.3878 197.741 11.8681 233.483 16.5622 252.944C16.5622 254.534 24.7097 259.804 57.2999 268.164C89.8901 276.524 93.3436 295.122 90.9966 303.376L116.646 252.944C111.617 244.084 91.6504 223.184 52.0191 210.462Z" fill="#C56A6A" stroke="#BE2626"/>
<path d="M144.101 246.918C174.34 214.439 104.158 205.517 65.2865 205.116C62.1609 204.739 50.7256 210.788 29.9893 237.994C9.25289 265.199 -27.7577 263.891 -43.671 259.837L52.0668 294.738C70.1451 292.331 113.862 279.396 144.101 246.918Z" fill="#C56A6A" stroke="#C56A6A"/>
<path d="M115.915 138.208C154.187 92.2137 67.3626 81.0983 19.1666 81.2899C15.2994 80.8244 0.974624 89.5028 -25.3867 127.941C-51.748 166.379 -97.6151 165.267 -117.253 159.906L0.646078 206.849C23.1227 203.133 77.6437 184.203 115.915 138.208Z" fill="#C56A6A" stroke="#BE2626"/>
<path d="M189.16 244.021C208.354 210.213 169.205 205.027 147.231 206.659C145.486 206.449 138.627 213.049 125.15 241.129C111.672 269.208 90.8093 269.844 82.0627 266.652L134.011 296.282C144.397 292.948 169.967 277.83 189.16 244.021Z" fill="#363092" stroke="#BE2626"/>
<path d="M90.0478 135.228C13.4234 117.375 12.4186 167.535 21.4943 194.846C21.4943 197.078 37.247 204.474 100.258 216.206C163.269 227.939 169.946 254.039 165.408 265.622L215 194.846C205.276 182.412 166.672 153.082 90.0478 135.228Z" fill="#511212"/>
<path d="M90.0478 135.228C13.4234 117.375 12.4186 167.535 21.4943 194.846C21.4943 197.078 37.247 204.474 100.258 216.206C163.269 227.939 169.946 254.039 165.408 265.622L215 194.846C205.276 182.412 166.672 153.082 90.0478 135.228Z" fill="#511212"/>
<path d="M90.0478 135.228C13.4234 117.375 12.4186 167.535 21.4943 194.846C21.4943 197.078 37.247 204.474 100.258 216.206C163.269 227.939 169.946 254.039 165.408 265.622L215 194.846C205.276 182.412 166.672 153.082 90.0478 135.228Z" fill="#D3CA75" fill-opacity="0.61"/>
<path d="M90.0478 135.228C13.4234 117.375 12.4186 167.535 21.4943 194.846C21.4943 197.078 37.247 204.474 100.258 216.206C163.269 227.939 169.946 254.039 165.408 265.622L215 194.846C205.276 182.412 166.672 153.082 90.0478 135.228Z" stroke="#BE2626"/>
</g>
<defs>
<filter id="filter0_f_52_16" x="-197.45" y="0.0655518" width="493.072" height="383.537" filterUnits="userSpaceOnUse" color-interpolation-filters="sRGB">
<feFlood flood-opacity="0" result="BackgroundImageFix"/>
<feBlend mode="normal" in="SourceGraphic" in2="BackgroundImageFix" result="shape"/>
<feGaussianBlur stdDeviation="40" result="effect1_foregroundBlur_52_16"/>
</filter>
</defs>
</svg>
