<svg width="343" height="469" viewBox="0 0 343 469" fill="none" xmlns="http://www.w3.org/2000/svg">
<g filter="url(#filter0_f_15_117)">
<ellipse cx="224.41" cy="256.346" rx="136.816" ry="110.665" transform="rotate(64.3759 224.41 256.346)" fill="#363092"/>
<path d="M164.75 212.891C159.626 173.022 127.436 187.907 111.982 200.332C110.559 201.015 109.237 210.35 115.331 242.234C121.425 274.117 106.226 285.095 97.8647 286.599L153.661 287.231C159.492 279.063 169.874 252.759 164.75 212.891Z" fill="#C56A6A" stroke="#BE2626"/>
<path d="M170.485 308.483C212.133 320.803 190.887 256.038 175.058 222.116C174.093 219.241 163.92 211.908 130.947 205.576C97.9743 199.245 83.7314 166.549 80.7315 150.993L89.3798 249.092C99.0619 263.756 128.838 296.163 170.485 308.483Z" fill="#C56A6A" stroke="#C56A6A"/>
<path d="M291.353 273.411C348.436 286.905 322.222 206.751 301.979 164.987C300.785 161.429 287.056 152.715 241.693 146.32C196.329 139.924 178.223 99.6225 174.84 80.2714L181.946 202.779C194.63 220.7 234.269 259.916 291.353 273.411Z" fill="#C56A6A" stroke="#BE2626"/>
<path d="M191.841 346.363C230.078 348.522 218.414 312.305 207.802 293.927C207.264 292.322 198.503 289.198 167.772 289.544C137.04 289.89 127.783 272.049 126.996 263.085L122.124 320.903C129.431 328.49 153.604 344.204 191.841 346.363Z" fill="#363092" stroke="#BE2626"/>
<path d="M283.246 249.673C267.307 175.483 222.018 196.132 201.365 215.731C199.369 216.688 199.313 233.539 215.058 293.283C230.803 353.026 210.236 370.022 197.984 371.052L281.95 383.743C289.023 369.965 299.185 323.862 283.246 249.673Z" fill="#511212"/>
<path d="M283.246 249.673C267.307 175.483 222.018 196.132 201.365 215.731C199.369 216.688 199.313 233.539 215.058 293.283C230.803 353.026 210.236 370.022 197.984 371.052L281.95 383.743C289.023 369.965 299.185 323.862 283.246 249.673Z" fill="#511212"/>
<path d="M283.246 249.673C267.307 175.483 222.018 196.132 201.365 215.731C199.369 216.688 199.313 233.539 215.058 293.283C230.803 353.026 210.236 370.022 197.984 371.052L281.95 383.743C289.023 369.965 299.185 323.862 283.246 249.673Z" fill="#D3CA75" fill-opacity="0.61"/>
<path d="M283.246 249.673C267.307 175.483 222.018 196.132 201.365 215.731C199.369 216.688 199.313 233.539 215.058 293.283C230.803 353.026 210.236 370.022 197.984 371.052L281.95 383.743C289.023 369.965 299.185 323.862 283.246 249.673Z" stroke="#BE2626"/>
</g>
<defs>
<filter id="filter0_f_15_117" x="0.230652" y="0.193848" width="420.202" height="468.507" filterUnits="userSpaceOnUse" color-interpolation-filters="sRGB">
<feFlood flood-opacity="0" result="BackgroundImageFix"/>
<feBlend mode="normal" in="SourceGraphic" in2="BackgroundImageFix" result="shape"/>
<feGaussianBlur stdDeviation="40" result="effect1_foregroundBlur_15_117"/>
</filter>
</defs>
</svg>
